<svg height="504pt" viewBox="0 -61 504 503" width="504pt" xmlns="http://www.w3.org/2000/svg"><path d="m488 8.5h-16c-2.207031 0-4-1.792969-4-4s1.792969-4 4-4h16c2.207031 0 4 1.792969 4 4s-1.792969 4-4 4zm0 0" fill="#ccd1d9"/><path d="m456 8.5h-24c-2.207031 0-4-1.792969-4-4s1.792969-4 4-4h24c2.207031 0 4 1.792969 4 4s-1.792969 4-4 4zm0 0" fill="#ccd1d9"/><path d="m416 8.5h-24c-2.207031 0-4-1.792969-4-4s1.792969-4 4-4h24c2.207031 0 4 1.792969 4 4s-1.792969 4-4 4zm0 0" fill="#ccd1d9"/><path d="m376 8.5h-32c-2.207031 0-4-1.792969-4-4s1.792969-4 4-4h32c2.207031 0 4 1.792969 4 4s-1.792969 4-4 4zm0 0" fill="#ccd1d9"/><path d="m344 8.5h-16c-2.207031 0-4-1.792969-4-4s1.792969-4 4-4h16c2.207031 0 4 1.792969 4 4s-1.792969 4-4 4zm0 0" fill="#ccd1d9"/><path d="m312 8.5h-8c-2.207031 0-4-1.792969-4-4s1.792969-4 4-4h8c2.207031 0 4 1.792969 4 4s-1.792969 4-4 4zm0 0" fill="#ccd1d9"/><path d="m288 8.5h-32c-2.207031 0-4-1.792969-4-4s1.792969-4 4-4h32c2.207031 0 4 1.792969 4 4s-1.792969 4-4 4zm0 0" fill="#ccd1d9"/><path d="m240 8.5h-16c-2.207031 0-4-1.792969-4-4s1.792969-4 4-4h16c2.207031 0 4 1.792969 4 4s-1.792969 4-4 4zm0 0" fill="#ccd1d9"/><path d="m504 376.5c0 2.199219-1.800781 4-4 4h-496c-2.199219 0-4-1.800781-4-4v-368c0-2.199219 1.800781-4 4-4h496c2.199219 0 4 1.800781 4 4zm0 0" fill="#656d78"/><path d="m424 292.484375c0 8.800781-7.199219 16-16 16h-16l-80 16.015625v-16.015625h-8c-8.800781 0-16-7.199219-16-16v-103.984375c0-8.800781 7.199219-16 16-16h16l80-16v16h8c8.800781 0 16 7.199219 16 16zm0 0" fill="#e6e9ed"/><path d="m200 320.5c0 2.199219-1.800781 4-4 4h-176c-2.199219 0-4-1.800781-4-4v-88c0-2.199219 1.800781-4 4-4h176c2.199219 0 4 1.800781 4 4zm0 0" fill="#e6e9ed"/><path d="m104 360.5c0 2.199219-1.800781 4-4 4h-80c-2.199219 0-4-1.800781-4-4v-8c0-2.199219 1.800781-4 4-4h80c2.199219 0 4 1.800781 4 4zm0 0" fill="#545c66"/><path d="m136 360.5c0 2.199219-1.800781 4-4 4h-8c-2.199219 0-4-1.800781-4-4v-8c0-2.199219 1.800781-4 4-4h8c2.199219 0 4 1.800781 4 4zm0 0" fill="#ccd1d9"/><path d="m168 360.5c0 2.199219-1.800781 4-4 4h-8c-2.199219 0-4-1.800781-4-4v-8c0-2.199219 1.800781-4 4-4h8c2.199219 0 4 1.800781 4 4zm0 0" fill="#ccd1d9"/><path d="m200 360.5c0 2.199219-1.800781 4-4 4h-8c-2.199219 0-4-1.800781-4-4v-8c0-2.199219 1.800781-4 4-4h8c2.199219 0 4 1.800781 4 4zm0 0" fill="#ccd1d9"/><path d="m328 196.5h56v88h-56zm0 0" fill="#a0d468"/><path d="m312 196.5h16v88h-16zm0 0" fill="#f5f7fa"/><path d="m384 196.5h16v88h-16zm0 0" fill="#f5f7fa"/><path d="m74.441406 324.5h24.839844l25.71875-96h-24.839844zm0 0" fill="#f5f7fa"/><path d="m115.839844 324.5 25.71875-96h-8.277344l-25.722656 96zm0 0" fill="#f5f7fa"/><path d="m96 60.5h16v144h-16zm0 0" fill="#ac92ec"/><path d="m248 324.5h-8v-168h8l16 16v136zm0 0" fill="#e6e9ed"/><path d="m464 188.5c0 4.417969-3.582031 8-8 8s-8-3.582031-8-8 3.582031-8 8-8 8 3.582031 8 8zm0 0" fill="#ccd1d9"/><path d="m32 28.5c0 4.417969-3.582031 8-8 8s-8-3.582031-8-8 3.582031-8 8-8 8 3.582031 8 8zm0 0" fill="#ccd1d9"/><path d="m64 28.5c0 4.417969-3.582031 8-8 8s-8-3.582031-8-8 3.582031-8 8-8 8 3.582031 8 8zm0 0" fill="#ccd1d9"/><path d="m96 28.5c0 4.417969-3.582031 8-8 8s-8-3.582031-8-8 3.582031-8 8-8 8 3.582031 8 8zm0 0" fill="#ccd1d9"/><path d="m148 68.5c0 6.628906-5.371094 12-12 12s-12-5.371094-12-12 5.371094-12 12-12 12 5.371094 12 12zm0 0" fill="#ccd1d9"/><path d="m148 100.5c0 6.628906-5.371094 12-12 12s-12-5.371094-12-12 5.371094-12 12-12 12 5.371094 12 12zm0 0" fill="#ccd1d9"/><path d="m148 132.5c0 6.628906-5.371094 12-12 12s-12-5.371094-12-12 5.371094-12 12-12 12 5.371094 12 12zm0 0" fill="#ccd1d9"/><path d="m464 220.5c0 4.417969-3.582031 8-8 8s-8-3.582031-8-8 3.582031-8 8-8 8 3.582031 8 8zm0 0" fill="#ccd1d9"/><path d="m464 252.5c0 4.417969-3.582031 8-8 8s-8-3.582031-8-8 3.582031-8 8-8 8 3.582031 8 8zm0 0" fill="#ccd1d9"/><path d="m464 284.5c0 4.417969-3.582031 8-8 8s-8-3.582031-8-8 3.582031-8 8-8 8 3.582031 8 8zm0 0" fill="#ccd1d9"/><path d="m464 316.5c0 4.417969-3.582031 8-8 8s-8-3.582031-8-8 3.582031-8 8-8 8 3.582031 8 8zm0 0" fill="#ccd1d9"/><path d="m84 188.5c0 11.046875-8.953125 20-20 20s-20-8.953125-20-20 8.953125-20 20-20 20 8.953125 20 20zm0 0" fill="#ccd1d9"/><path d="m192 32.5c0 2.199219-1.800781 4-4 4h-72c-2.199219 0-4-1.800781-4-4v-8c0-2.199219 1.800781-4 4-4h72c2.199219 0 4 1.800781 4 4zm0 0" fill="#545c66"/><path d="m504 32.5c0 2.199219-1.273438 5.273438-2.832031 6.832031l-26.34375 26.34375c-1.550781 1.550781-4.625 2.824219-6.824219 2.824219h-224c-2.199219 0-5.273438-1.273438-6.832031-2.832031l-26.34375-26.34375c-1.550781-1.550781-2.832031-4.625-2.832031-6.832031v-24c0-2.199219 1.800781-4 4-4h288c2.199218 0 4 1.800781 4 4v24.007812zm0 0" fill="#e6e9ed"/><path d="m447.984375 40.5h-183.96875c-2.207031 0-4-1.792969-4-4s1.792969-4 4-4h183.96875c2.207031 0 4 1.792969 4 4s-1.792969 4-4 4zm0 0" fill="#ccd1d9"/><path d="m408.238281 192.5c-2.207031 0-4.039062-1.792969-4.039062-4s1.753906-4 3.953125-4h.085937c2.203125 0 4 1.792969 4 4s-1.789062 4-4 4zm0 0" fill="#ccd1d9"/><path d="m304.238281 192.5c-2.207031 0-4.039062-1.792969-4.039062-4s1.753906-4 3.953125-4h.085937c2.203125 0 4 1.792969 4 4s-1.789062 4-4 4zm0 0" fill="#ccd1d9"/><path d="m408.238281 296.5c-2.207031 0-4.039062-1.792969-4.039062-4s1.753906-4 3.953125-4h.085937c2.203125 0 4 1.792969 4 4s-1.789062 4-4 4zm0 0" fill="#ccd1d9"/><path d="m304.238281 296.5c-2.207031 0-4.039062-1.792969-4.039062-4s1.753906-4 3.953125-4h.085937c2.203125 0 4 1.792969 4 4s-1.789062 4-4 4zm0 0" fill="#ccd1d9"/><g fill="#8cc152"><path d="m340.238281 212.5c-2.207031 0-4.039062-1.792969-4.039062-4s1.753906-4 3.953125-4h.085937c2.203125 0 4 1.792969 4 4s-1.789062 4-4 4zm0 0"/><path d="m356.238281 212.5c-2.207031 0-4.039062-1.792969-4.039062-4s1.753906-4 3.953125-4h.085937c2.203125 0 4 1.792969 4 4s-1.789062 4-4 4zm0 0"/><path d="m372.238281 212.5c-2.207031 0-4.039062-1.792969-4.039062-4s1.753906-4 3.953125-4h.085937c2.203125 0 4 1.792969 4 4s-1.789062 4-4 4zm0 0"/><path d="m340.238281 212.5c-2.207031 0-4.039062-1.792969-4.039062-4s1.753906-4 3.953125-4h.085937c2.203125 0 4 1.792969 4 4s-1.789062 4-4 4zm0 0"/><path d="m340.238281 228.5c-2.207031 0-4.039062-1.792969-4.039062-4s1.753906-4 3.953125-4h.085937c2.203125 0 4 1.792969 4 4s-1.789062 4-4 4zm0 0"/><path d="m356.238281 228.5c-2.207031 0-4.039062-1.792969-4.039062-4s1.753906-4 3.953125-4h.085937c2.203125 0 4 1.792969 4 4s-1.789062 4-4 4zm0 0"/><path d="m372.238281 228.5c-2.207031 0-4.039062-1.792969-4.039062-4s1.753906-4 3.953125-4h.085937c2.203125 0 4 1.792969 4 4s-1.789062 4-4 4zm0 0"/><path d="m340.238281 228.5c-2.207031 0-4.039062-1.792969-4.039062-4s1.753906-4 3.953125-4h.085937c2.203125 0 4 1.792969 4 4s-1.789062 4-4 4zm0 0"/><path d="m340.238281 244.5c-2.207031 0-4.039062-1.792969-4.039062-4s1.753906-4 3.953125-4h.085937c2.203125 0 4 1.792969 4 4s-1.789062 4-4 4zm0 0"/><path d="m356.238281 244.5c-2.207031 0-4.039062-1.792969-4.039062-4s1.753906-4 3.953125-4h.085937c2.203125 0 4 1.792969 4 4s-1.789062 4-4 4zm0 0"/><path d="m372.238281 244.5c-2.207031 0-4.039062-1.792969-4.039062-4s1.753906-4 3.953125-4h.085937c2.203125 0 4 1.792969 4 4s-1.789062 4-4 4zm0 0"/><path d="m340.238281 244.5c-2.207031 0-4.039062-1.792969-4.039062-4s1.753906-4 3.953125-4h.085937c2.203125 0 4 1.792969 4 4s-1.789062 4-4 4zm0 0"/><path d="m340.238281 260.5c-2.207031 0-4.039062-1.792969-4.039062-4s1.753906-4 3.953125-4h.085937c2.203125 0 4 1.792969 4 4s-1.789062 4-4 4zm0 0"/><path d="m356.238281 260.5c-2.207031 0-4.039062-1.792969-4.039062-4s1.753906-4 3.953125-4h.085937c2.203125 0 4 1.792969 4 4s-1.789062 4-4 4zm0 0"/><path d="m372.238281 260.5c-2.207031 0-4.039062-1.792969-4.039062-4s1.753906-4 3.953125-4h.085937c2.203125 0 4 1.792969 4 4s-1.789062 4-4 4zm0 0"/><path d="m340.238281 260.5c-2.207031 0-4.039062-1.792969-4.039062-4s1.753906-4 3.953125-4h.085937c2.203125 0 4 1.792969 4 4s-1.789062 4-4 4zm0 0"/><path d="m340.238281 276.5c-2.207031 0-4.039062-1.792969-4.039062-4s1.753906-4 3.953125-4h.085937c2.203125 0 4 1.792969 4 4s-1.789062 4-4 4zm0 0"/><path d="m356.238281 276.5c-2.207031 0-4.039062-1.792969-4.039062-4s1.753906-4 3.953125-4h.085937c2.203125 0 4 1.792969 4 4s-1.789062 4-4 4zm0 0"/><path d="m372.238281 276.5c-2.207031 0-4.039062-1.792969-4.039062-4s1.753906-4 3.953125-4h.085937c2.203125 0 4 1.792969 4 4s-1.789062 4-4 4zm0 0"/><path d="m340.238281 276.5c-2.207031 0-4.039062-1.792969-4.039062-4s1.753906-4 3.953125-4h.085937c2.203125 0 4 1.792969 4 4s-1.789062 4-4 4zm0 0"/></g><path d="m480 328.5c-2.207031 0-4-1.792969-4-4v-144c0-2.207031 1.792969-4 4-4s4 1.792969 4 4v144c0 2.207031-1.792969 4-4 4zm0 0" fill="#545c66"/><path d="m488 184.5h-8c-2.207031 0-4-1.792969-4-4s1.792969-4 4-4h8c2.207031 0 4 1.792969 4 4s-1.792969 4-4 4zm0 0" fill="#545c66"/><path d="m488 328.5h-8c-2.207031 0-4-1.792969-4-4s1.792969-4 4-4h8c2.207031 0 4 1.792969 4 4s-1.792969 4-4 4zm0 0" fill="#545c66"/><path d="m488 160.5h-40c-2.207031 0-4-1.792969-4-4s1.792969-4 4-4h40c2.207031 0 4 1.792969 4 4s-1.792969 4-4 4zm0 0" fill="#545c66"/><path d="m448 168.5c-2.207031 0-4-1.792969-4-4v-8c0-2.207031 1.792969-4 4-4s4 1.792969 4 4v8c0 2.207031-1.792969 4-4 4zm0 0" fill="#545c66"/><path d="m488 168.5c-2.207031 0-4-1.792969-4-4v-8c0-2.207031 1.792969-4 4-4s4 1.792969 4 4v8c0 2.207031-1.792969 4-4 4zm0 0" fill="#545c66"/><path d="m224 328.5c-2.207031 0-4-1.792969-4-4v-168c0-2.207031 1.792969-4 4-4s4 1.792969 4 4v168c0 2.207031-1.792969 4-4 4zm0 0" fill="#545c66"/><path d="m56 112.5c-2.207031 0-4-1.792969-4-4v-4c0-2.207031 1.792969-4 4-4s4 1.792969 4 4v4c0 2.207031-1.792969 4-4 4zm0 0" fill="#aab2bd"/><path d="m56 156.5c-2.207031 0-4-1.792969-4-4v-4c0-2.207031 1.792969-4 4-4s4 1.792969 4 4v4c0 2.207031-1.792969 4-4 4zm0 0" fill="#aab2bd"/><path d="m72 112.5c-2.207031 0-4-1.792969-4-4v-4c0-2.207031 1.792969-4 4-4s4 1.792969 4 4v4c0 2.207031-1.792969 4-4 4zm0 0" fill="#aab2bd"/><path d="m72 156.5c-2.207031 0-4-1.792969-4-4v-4c0-2.207031 1.792969-4 4-4s4 1.792969 4 4v4c0 2.207031-1.792969 4-4 4zm0 0" fill="#aab2bd"/><path d="m48 88.5c-2.207031 0-4-1.792969-4-4v-24c0-2.207031 1.792969-4 4-4s4 1.792969 4 4v24c0 2.207031-1.792969 4-4 4zm0 0" fill="#545c66"/><path d="m56 64.5h-8c-2.207031 0-4-1.792969-4-4s1.792969-4 4-4h8c2.207031 0 4 1.792969 4 4s-1.792969 4-4 4zm0 0" fill="#545c66"/><path d="m56 88.5h-8c-2.207031 0-4-1.792969-4-4s1.792969-4 4-4h8c2.207031 0 4 1.792969 4 4s-1.792969 4-4 4zm0 0" fill="#545c66"/><path d="m72 88.5c-2.207031 0-4-1.792969-4-4v-24c0-2.207031 1.792969-4 4-4s4 1.792969 4 4v24c0 2.207031-1.792969 4-4 4zm0 0" fill="#545c66"/><path d="m80 64.5h-8c-2.207031 0-4-1.792969-4-4s1.792969-4 4-4h8c2.207031 0 4 1.792969 4 4s-1.792969 4-4 4zm0 0" fill="#545c66"/><path d="m80 88.5h-8c-2.207031 0-4-1.792969-4-4s1.792969-4 4-4h8c2.207031 0 4 1.792969 4 4s-1.792969 4-4 4zm0 0" fill="#545c66"/><path d="m160 144.5c-2.207031 0-4-1.792969-4-4v-80c0-2.207031 1.792969-4 4-4s4 1.792969 4 4v80c0 2.207031-1.792969 4-4 4zm0 0" fill="#545c66"/><path d="m128 168.5c-2.207031 0-4-1.792969-4-4v-8c0-2.207031 1.792969-4 4-4s4 1.792969 4 4v8c0 2.207031-1.792969 4-4 4zm0 0" fill="#545c66"/><path d="m160 160.5h-32c-2.207031 0-4-1.792969-4-4s1.792969-4 4-4h32c2.207031 0 4 1.792969 4 4s-1.792969 4-4 4zm0 0" fill="#545c66"/><path d="m160 168.5c-2.207031 0-4-1.792969-4-4v-8c0-2.207031 1.792969-4 4-4s4 1.792969 4 4v8c0 2.207031-1.792969 4-4 4zm0 0" fill="#545c66"/><path d="m128 192.5c-2.207031 0-4-1.792969-4-4v-8c0-2.207031 1.792969-4 4-4s4 1.792969 4 4v8c0 2.207031-1.792969 4-4 4zm0 0" fill="#545c66"/><path d="m160 184.5h-32c-2.207031 0-4-1.792969-4-4s1.792969-4 4-4h32c2.207031 0 4 1.792969 4 4s-1.792969 4-4 4zm0 0" fill="#545c66"/><path d="m160 192.5c-2.207031 0-4-1.792969-4-4v-8c0-2.207031 1.792969-4 4-4s4 1.792969 4 4v8c0 2.207031-1.792969 4-4 4zm0 0" fill="#545c66"/><path d="m160 208.5h-32c-2.207031 0-4-1.792969-4-4s1.792969-4 4-4h32c2.207031 0 4 1.792969 4 4s-1.792969 4-4 4zm0 0" fill="#545c66"/><path d="m84 144.5c0 2.199219-1.800781 4-4 4h-32c-2.199219 0-4-1.800781-4-4v-32c0-2.199219 1.800781-4 4-4h32c2.199219 0 4 1.800781 4 4zm0 0" fill="#ccd1d9"/><path d="m108 208.5h-7.992188c-2.207031 0-4-1.792969-4-4v-144c0-2.207031 1.792969-4 4-4h7.992188c2.207031 0 4 1.792969 4 4v144c0 2.207031-1.792969 4-4 4zm0 0" fill="#5d9cec"/><path d="m96.007812 184.5h15.992188v8h-15.992188zm0 0" fill="#4a89dc"/><path d="m96.007812 72.5h15.992188v8h-15.992188zm0 0" fill="#4a89dc"/><path d="m188 208.5h-7.992188c-2.207031 0-4-1.792969-4-4v-144c0-2.207031 1.792969-4 4-4h7.992188c2.207031 0 4 1.792969 4 4v144c0 2.207031-1.792969 4-4 4zm0 0" fill="#5d9cec"/><path d="m176.007812 184.5h15.992188v8h-15.992188zm0 0" fill="#4a89dc"/><path d="m176.007812 72.5h15.992188v8h-15.992188zm0 0" fill="#4a89dc"/><path d="m219.945312 96.492188v-7.992188c0-2.207031 1.789063-4 4-4h264.117188c2.210938 0 4 1.792969 4 4v7.992188c0 2.207031-1.789062 4-4 4h-264.117188c-2.210937 0-4-1.792969-4-4zm0 0" fill="#5d9cec"/><path d="m235.945312 84.5h8v15.992188h-8zm0 0" fill="#4a89dc"/><path d="m468.0625 84.5h8v15.992188h-8zm0 0" fill="#4a89dc"/><path d="m352 84.5h8v15.992188h-8zm0 0" fill="#4a89dc"/><path d="m219.945312 128.507812v-7.992187c0-2.207031 1.789063-4 4-4h264.117188c2.210938 0 4 1.792969 4 4v7.992187c0 2.207032-1.789062 4-4 4h-264.117188c-2.210937 0-4-1.792968-4-4zm0 0" fill="#5d9cec"/><path d="m235.945312 116.515625h8v15.992187h-8zm0 0" fill="#4a89dc"/><path d="m468.0625 116.515625h8v15.992187h-8zm0 0" fill="#4a89dc"/><path d="m352 116.515625h8v15.992187h-8zm0 0" fill="#4a89dc"/><path d="m219.945312 360.492188v-7.992188c0-2.207031 1.789063-4 4-4h264.117188c2.210938 0 4 1.792969 4 4v7.992188c0 2.207031-1.789062 4-4 4h-264.117188c-2.210937 0-4-1.792969-4-4zm0 0" fill="#5d9cec"/><path d="m235.945312 348.5h8v15.992188h-8zm0 0" fill="#4a89dc"/><path d="m468.0625 348.5h8v15.992188h-8zm0 0" fill="#4a89dc"/><path d="m352 348.5h8v15.992188h-8zm0 0" fill="#4a89dc"/><path d="m27.992188 208.5h-7.992188c-2.207031 0-4-1.792969-4-4v-144c0-2.207031 1.792969-4 4-4h7.992188c2.207031 0 4 1.792969 4 4v144c0 2.207031-1.792969 4-4 4zm0 0" fill="#5d9cec"/><path d="m16 184.5h15.992188v8h-15.992188zm0 0" fill="#4a89dc"/><path d="m16 72.5h15.992188v8h-15.992188zm0 0" fill="#4a89dc"/><path d="m400 156.5-80 16h80zm0 0" fill="#ccd1d9"/><path d="m311.953125 324.492188 80-16h-80zm0 0" fill="#ccd1d9"/></svg>